<svg xmlns="http://www.w3.org/2000/svg" xmlns:xlink="http://www.w3.org/1999/xlink" aria-hidden="true" role="img" class="iconify iconify--ph" width="24" height="24" preserveAspectRatio="xMidYMid meet" viewBox="0 0 256 256"><path fill="currentColor" d="M128 24a104 104 0 1 0 104 104A104.1 104.1 0 0 0 128 24Zm0 192a88 88 0 1 1 88-88a88.1 88.1 0 0 1-88 88Zm16-40a8 8 0 0 1-8 8h-8a8 8 0 0 1-8-8v-48a8 8 0 0 1 0-16h8a8 8 0 0 1 8 8v48a8 8 0 0 1 8 8Zm-30-92a12 12 0 1 1 12 12a12 12 0 0 1-12-12Z"></path></svg>