<svg id="Layer_1" data-name="Layer 1" xmlns="http://www.w3.org/2000/svg" viewBox="0 0 300 300">
    <defs>
        <style>
            .cls-1 {
                fill: #d7df23;
            }
        </style>
    </defs>
    <title>wheke.dev</title>
    <path class="cls-1"
        d="M259.86,163.51a1.69,1.69,0,0,0-1.64,1.65,1.49,1.49,0,0,0,.49,1.12,1.59,1.59,0,0,0,1.15.47,1.61,1.61,0,0,0,1.19-.47,1.5,1.5,0,0,0,.5-1.12,1.58,1.58,0,0,0-.5-1.15A1.6,1.6,0,0,0,259.86,163.51Z" />
    <path class="cls-1"
        d="M271.69,163.51a1.56,1.56,0,0,0-1.15.5,1.58,1.58,0,0,0-.5,1.15,1.5,1.5,0,0,0,.5,1.12,1.57,1.57,0,0,0,1.15.47,1.61,1.61,0,0,0,1.64-1.59,1.63,1.63,0,0,0-.47-1.15A1.54,1.54,0,0,0,271.69,163.51Z" />
    <path class="cls-1"
        d="M266,163.51a1.64,1.64,0,0,0-1.2.5,1.57,1.57,0,0,0-.49,1.15,1.49,1.49,0,0,0,.49,1.12,1.65,1.65,0,0,0,1.2.47,1.59,1.59,0,0,0,1.15-.47,1.49,1.49,0,0,0,.49-1.12,1.69,1.69,0,0,0-1.64-1.65Z" />
    <path class="cls-1"
        d="M258.9,136.1a25.36,25.36,0,0,0-23.21,15.12l-.08,0a9.07,9.07,0,0,0-3.49-3.77c-6.8-3.9-14.09-.85-16.33,7.06-2,7.1-.72,13.71,3.41,19.87,2.82,4.21,5.48,8.55,8,12.93a9.33,9.33,0,0,1,1.1,4.32,3.37,3.37,0,0,1-1.47,2.52c-.52.31-1.86-.23-2.49-.78a46.35,46.35,0,0,1-4.89-4.92A38.1,38.1,0,0,0,200.56,176a15.22,15.22,0,0,1-1.75-.78l1.9-2.09c.62.27,1.15.72,1.66.68,2.6-.16,6.55-6.67,5.18-8.87a2.77,2.77,0,0,1,.9-4.06c3.62-2,3.29-5.34,3.44-8.54a3.32,3.32,0,0,0-1-2.06c-1.42-1.52-2.07-4.71-1.17-6.55,1.32-2.7-.81-7.35-3.55-8.56a3.37,3.37,0,0,1-1.21-3.07,6,6,0,0,0-1.16-6.86c-1.73-1.79-1.34-3.2-.66-5.22a12.42,12.42,0,0,0,.62-6.36c-.47-2-.27-2.87,1.49-4a8.06,8.06,0,0,0,3-3.76c.69-1.8,1.35-2.57,3.48-2.54a6.62,6.62,0,0,0,4.49-2c1.23-1.33,2.05-1.41,3.53-.73,1.24.58,2.92,1.42,4,1,.19-.08.37-.13.55-.19a1.4,1.4,0,0,1,.36,0c-.06.72-.09,1.43-.09,2.16a25.37,25.37,0,1,0,1.34-8.14l-.52.62a22.44,22.44,0,0,0-10.83-1.21c-11.28,1.27-20.07,10.4-21.82,22.14-1.37,9.21-.06,18.13,2.87,26.85,2,5.93.47,11.06-3.27,15.72a23.6,23.6,0,0,1-13.84,8.49c-2.81.61-4.62-.11-5.35-2.89a29.54,29.54,0,0,1-.58-7.36c0-1.92,1-3.11,2.91-3.93a22.7,22.7,0,0,0,11.89-11.38c3.69-7.64-.67-14.42-9.14-13.85-2.93.2-5.8,1.23-8.93,1.93,5.85-3.35,11.6-5.44,18.13-2,.39-.93.76-1.72,1.08-2.54A121.3,121.3,0,0,0,196.22,94c1.95-21-3.49-39.64-18.34-55-16.63-17.16-37.71-18-55.53-2.12-13.94,12.43-20.44,28.54-21,47-.42,14.1,3.25,27.53,7.91,40.71.41,1.13.89,2.24,1.31,3.32,6.82-1.85,13.46-.62,16.66,2.89-1.51-.54-3.06-1.22-4.68-1.66-5.28-1.44-10.3-.28-12.45,3-2.9,4.45-1.39,8.69,1,12.8a8.54,8.54,0,0,0,.6.88A25.17,25.17,0,0,0,124,155c.82.28,2.06,1,2.11,1.62.24,2.77.58,5.68,0,8.35-.64,3-3.67,4.31-6.73,3.66-13.4-2.82-20.09-13.85-16.25-26.85,2.64-9,3.64-18,1.44-27.18-3.48-14.47-18.29-22.74-31.66-18A25.47,25.47,0,1,0,74,103.89q0-.89-.06-1.74A6.35,6.35,0,0,0,78.24,101c.65-.37,2.39.17,3,.85a5.47,5.47,0,0,0,5,2,3.84,3.84,0,0,1,3,2.16,6,6,0,0,0,3.45,4.28c.87.43,1.92,2.53,1.64,2.89-2.2,2.8-.81,5.24.47,7.66.91,1.71.65,2.78-.52,4.43s-1.67,4.15-2,6.34c-.19,1.25.49,2.64.77,4l-1.21-.41c-1,.75-2.38,1.29-2.87,2.28-1.07,2.15-2,4.28-.86,7a6.63,6.63,0,0,1-.8,5.76c-2.16,2.45-1.84,9.4,1.2,10.69,2.11.9,2.56,2.15,1.72,4.22-1,2.54,2.86,8.6,5.42,8.82a16.3,16.3,0,0,1,3.24,1l-.1,1c-9.82,2.09-17,8-23.16,15.47A13.77,13.77,0,0,1,72.87,194c-.65.45-1.79.92-2.32.64a2.85,2.85,0,0,1-1.41-2.22,15.06,15.06,0,0,1,1.52-5.55c2.61-4.56,5.6-8.89,8.34-13.38,3.85-6.31,4.71-13,2-20s-9.41-9.17-15.77-5.64a7.67,7.67,0,0,0-1.7,1.3,25.2,25.2,0,1,0,1.66,5.24h0A4.72,4.72,0,0,1,66,153.3a6,6,0,0,1,6.71-.72c1.83,1.25,2.59,4.7,1.82,6.7-.56,1.42-.53,3.06-.91,4.56a9.12,9.12,0,0,1-1.18,2.88c-1,1.46-2.19,2.78-3.3,4.16-.8,1-1.41,2.65-2.4,2.92-3.63,1-4.74,3.5-5.39,6.75-.21,1.06-1.27,2-2.08,2.85s-2.44,1.53-2.71,2.54a16.6,16.6,0,0,0,0,5.27c.08,1.45,1,3.48.4,4.22-1.62,1.9-1,3.56-.14,5.14,1.19,2.31,2,5,5.66,5,2,0,2.37,2.7,3.52,4.14,1.69,2.11,8,.92,10-1.11,1.1-1.11,3.14-2.35,4.38-2,3.65.92,9-2.86,8.63-6.55-.16-1.39,2.74-4.18,4-3.8,4.44,1.3,7.71-.21,10.16-4,.25-.37.88-.5,1.33-.74,3.46-1.8,6.91-3.62,10.39-5.39a10.09,10.09,0,0,1,1.84-.57c.09.19.18.38.26.57l-4.64,5.1c-4.82,5.28-9.37,10.73-12.38,17.32-6.54,14.32-3.53,26.87,8.87,36.54,1.48,1.15,3.1,2.12,4.53,3.32,2.65,2.23,5.53,4.29,7.74,6.9,3.87,4.58,3.83,9.46.57,14.45-.74,1.12-1.32,2.34-2,3.51l.7.42c4.35-2.68,8.06-5.71,8.3-11.6.26-6.34-2.23-11.45-6.38-15.91-3.16-3.39-6.65-6.48-9.71-10-5.08-5.75-5.77-12.2-2.37-19.11,2.73-5.56,7.14-9.68,11.51-13.92,5.75-5.57,11.36-11.29,16.75-17.21,4.13-4.53,14.4-5.74,19.15-1.85a11.91,11.91,0,0,1,.94.94c5.73,5.85,11.36,11.79,17.22,17.51,4,3.93,8.06,7.81,10.73,12.87,2.54,4.84,3.41,9.9.89,14.87a40.28,40.28,0,0,1-5.87,7.85c-2.46,2.81-5.31,5.28-7.8,8.06A20.69,20.69,0,0,0,168.25,259a12.85,12.85,0,0,0,9.3,13.43,41.73,41.73,0,0,0-2.6-4.34c-2.26-2.87-2.46-6-1.48-9.34a16.36,16.36,0,0,1,6.05-8.28c3.5-2.76,7.19-5.27,10.62-8.11,9.32-7.68,12.44-18.84,8.7-30.34-2.65-8.17-7.63-14.84-13.39-21-1.67-1.79-3.28-3.64-5.09-5.65.69-.13,1-.27,1.19-.21a4.82,4.82,0,0,1,.95.45l11.14,5.62c.38.2.87.37,1.07.69,2.72,4.46,6.26,5.8,11,4l3.52,3.15c-1,2.44.2,4.71,3.7,7,1.65,1.09,3.39,2.09,5.17-.82,1.54,1.49,2.67,3.36,4.27,4a21.76,21.76,0,0,0,7.7,1.21c1.86,0,3.46-1.12,1.66-3.54,1.91-.43,2.92-3,5.25-1.46.19.12,1.07-.38,1.3-.79a54.62,54.62,0,0,0,3.32-6.28,3.32,3.32,0,0,0-.73-2.54c-1.22-1.69-1.18-3.22.23-4.64,1.56-1.55.33-7.66-1.82-7.77-2.7-.14-2.58-1.76-2.95-3.55a8.37,8.37,0,0,0-4.43-6c-1.32-.7-2.28-2.11-3.34-3.27a43.33,43.33,0,0,1-3.25-3.9,7.85,7.85,0,0,1-1.24-2.82c-.3-1.36.16-3.16-.57-4.07-1.61-2-1-3.8-.29-5.71a4,4,0,0,1,4.15-2.75c2.34,0,4.22.83,5.11,3.13.3.78.78,2.09,1.29,3.23a.61.61,0,0,0,.05.12A25.37,25.37,0,1,0,258.9,136.1Zm-16.66-18.69c-.09.4-.21.79-.43,1.58l-5.09-4.09.26-.35c1.28.21,2.56.42,3.84.65A1.61,1.61,0,0,1,242.24,117.41Zm7.15-18.74q-3,6.61-6.07,13.23a32.09,32.09,0,0,1-3.58-12.69c0-.32.29-.69.5-1,.11-.16.42-.24.47-.41.49-1.79,1.94-1.4,3.17-1.35,1.52.07,3,.25,4.54.45A1.28,1.28,0,0,1,249.39,98.67Zm.86,1.41c.19-.41.86-.61,1.31-.9.1-.06.27,0,.36-.1,1.55-1.29,2.87-.3,4.07.53,2,1.35,3.83,2.87,5.73,4.33l-.55.39c-.05.9-.06,1.81-.17,2.71a1.56,1.56,0,0,1-.44.94,22.81,22.81,0,0,1-13.57,6c-1.38.13-2.26-.86-1.75-2.09C246.85,107.9,248.53,104,250.25,100.08ZM245,120c-1.81-.51-2-1-1.27-2.7.27-.59.64-.78,1.15-.22a4.24,4.24,0,0,1,.31.4l2.43,3.11C246.51,120.37,245.72,120.24,245,120Zm19.38-7.4a16.75,16.75,0,0,1-13.69,8c-.36,0-.87,0-1.07-.18-1.39-1.51-2.71-3.08-4.27-4.88.78-.15,1.13-.26,1.48-.29a24.77,24.77,0,0,0,14.7-6.27,9.44,9.44,0,0,1,2.45-1.14C265.56,110.05,265.62,110.64,264.34,112.62Zm2-4.26c-1.8-2.1-1.7-2.93.58-5.3C266.76,104.83,266.56,106.59,266.37,108.36Zm-5.82-17.89a16.72,16.72,0,0,1,5.86,9.14c0,.12,0,.25,0,.38l.22.13c-.85,1.29-1.68,2.6-2.61,3.82-.09.12-1-.15-1.27-.46a24,24,0,0,0-8.62-6.37,1.24,1.24,0,0,1-.43-2.13c1.73-1.6,3.54-3.13,5.38-4.59A1.5,1.5,0,0,1,260.55,90.47Zm-17.26-2.6A17.63,17.63,0,0,1,257,88.2c.45.2.88.46,1.2.63-2,1.93-3.82,3.89-5.89,5.53a6.1,6.1,0,0,1-3.54,1.06c-2.36,0-4.72-.34-7.08-.45-1.41-.07-1.92-.67-2-2.07C239.57,90.22,240.82,88.76,243.29,87.87Zm-5,3c.27,3.69-.52,4.73-3.75,4.77Zm-4.67,7.44a2.3,2.3,0,0,1,3.74-.58,4.59,4.59,0,0,1,.92,2.08,36.74,36.74,0,0,0,3.59,12.38c.52,1,.13,1.72-.93,1.76-1.73-.39-3.47-.76-5.19-1.21a1.67,1.67,0,0,1-.89-.79A16.75,16.75,0,0,1,233.63,98.27ZM60.18,121.8a4.08,4.08,0,0,1-1.28,3,4.14,4.14,0,0,1-3,1.27H41.63a3.94,3.94,0,0,1-3-1.27,4.31,4.31,0,0,1-1.18-3V86.34a4.22,4.22,0,0,1,1.18-3,4,4,0,0,1,3-1.22H55.86a4.25,4.25,0,0,1,3,1.22,4,4,0,0,1,1.28,3Zm-16,21.78a5.86,5.86,0,1,1,0,8.27,5.88,5.88,0,0,1,0-8.27Zm-9.55,1.68A4.16,4.16,0,0,1,37.71,144a4.28,4.28,0,1,1,0,8.56,4.15,4.15,0,0,1-3-1.23,4.24,4.24,0,0,1-1.29-3.05A4.15,4.15,0,0,1,34.66,145.26Zm-8,.83a3.51,3.51,0,0,1,5,4.95,3.49,3.49,0,0,1-5,0,3.51,3.51,0,0,1,0-4.95ZM56.33,177h-16v-7.23H31.84v-3.64H24.37v-8.27h0s0,0,0,0v-.3a4.59,4.59,0,0,1,1.4-3.37,4.84,4.84,0,0,1,6.81,0,5.59,5.59,0,0,1,.81,1.07l.17-.13a5.83,5.83,0,0,1,8.27,0A7.24,7.24,0,0,1,43,156.68a8,8,0,0,1,13.33,5.94Zm73.11-24.56c-5.81-.05-13-6.18-13.92-11.87-.64-3.95,1.74-6.67,5.7-6.51,5.88.24,12.54,5.94,13.73,11.76C135.75,149.66,133.43,152.44,129.44,152.4ZM147.73,72q0,10.94,0,21.88v2.23a13.61,13.61,0,0,0-.1,3.25,21.91,21.91,0,0,0,.09,3.8l0,.37v0a.49.49,0,0,1-.06.41h0c-.58,4.63-5.83,10.14-12.77,7a2.47,2.47,0,0,0-2-.1,12.52,12.52,0,0,1-8.17.42c-5.83-1.88-8.23-8.52-9.36-14a5.48,5.48,0,0,0-.79-1.94,14.69,14.69,0,0,1-2.5-7,14.48,14.48,0,0,1,1.11-7.3c.4-.94-.4-2-.69-2.91a9,9,0,0,1-.48-3.32h0a10.57,10.57,0,0,1,2.09-6.54,21.76,21.76,0,0,1,2.13-2.64c.8-.83,1.57-1.29,1.79-2.45A15.6,15.6,0,0,1,119.33,59a8.24,8.24,0,0,1,7.75-4.91,4.59,4.59,0,0,0,3.44-1.37c3.94-3.76,10.85-5.84,14.82-1,2.19,2.7,2.45,5.81,2.41,9.14C147.71,64.58,147.74,68.3,147.73,72Zm2.34,32-.06-.42,0-.37a21.91,21.91,0,0,0,.09-3.8,13.61,13.61,0,0,0-.1-3.25V93.9q0-11,0-21.88c0-3.72,0-7.44,0-11.16,0-3.33.22-6.44,2.42-9.14,4-4.87,10.87-2.79,14.82,1a4.55,4.55,0,0,0,3.43,1.37A8.24,8.24,0,0,1,178.36,59a16,16,0,0,1,1.35,4.27c.21,1.16,1,1.62,1.78,2.45a20.84,20.84,0,0,1,2.13,2.64,10.57,10.57,0,0,1,2.09,6.54h0a9,9,0,0,1-.48,3.32c-.29.89-1.08,2-.69,2.91a14.48,14.48,0,0,1,1.11,7.3,14.69,14.69,0,0,1-2.5,7,5.46,5.46,0,0,0-.78,1.94c-1.14,5.44-3.54,12.08-9.37,14a12.52,12.52,0,0,1-8.17-.42,2.47,2.47,0,0,0-2,.1C155.9,114.11,150.65,108.6,150.07,104Zm17.73,48c-4.15,0-6.13-2.56-5.24-6.67,1.2-5.57,7.66-11.12,13.34-11.46,4-.24,6.44,2.41,5.87,6.3C180.89,146.08,173.91,152,167.8,151.93Zm84.08,17.83-9.48,4.41,2.67-6.81-1.41-.89-2.34-2.16-.85-1.22-.65-1.22-.43-1.22-.32-1.22v-2.21l.18-1.12.38-1.08,1.22-2.21.84-1,1-1,1.17-.93,2.63-1.51,3-1.12,3.15-.75h5.44l2.49.46,2.44.66,2.39,1,2.07,1.23,1.78,1.54.75.8,1.22,1.69.43.94-2.4-.56-2.11-.19h-2.11l-3.05.42-1.46.42-1.45.57-1.93,1-1.64,1.22-.75.66-.66.75-1,1.64-.71,1.65-.18.94v2.58l.18.84.94,2.16.8,1.13Zm26.66-3.38-.85,1.83-.65.94-1.74,1.59-1,.66,2,5.07-7.09-3.15H264l-2.3-.51-2.21-.8-1.08-.56-1.83-1.27-1.41-1.55-.89-1.55-.24-.89-.28-1.6.1-.79.42-1.65.89-1.64,1.41-1.46,1.83-1.31,3.29-1.41,2.3-.42,2.25-.19,2.3.19,2.3.42,2.25.89,1.08.52.89.61,1.65,1.41,1.17,1.59.7,1.6.1.85v1.69Z" />
    <path class="cls-1"
        d="M137.51,63.77c1.84-.48,3.51-.07,4.68-1.92a6,6,0,0,0-.36-6.53,3.84,3.84,0,0,0-3.89-1.17,5,5,0,0,0-2.07.68c-.34.38-.21,1-.27,1.49-.25,2.42-1.59,4.54-4.3,3.72a12.58,12.58,0,0,1-2.61-1.2.91.91,0,0,0-.74-.18,8.89,8.89,0,0,0-2.88,1.2,2.29,2.29,0,0,0-1,1.36c-.24,1,.49,1.28,1.22,1.69A14.79,14.79,0,0,1,128,64.84a9,9,0,0,1,2.61,8.55c-.42,1.89-1.85,1.29-2.83.14-1.18-1.4-1.86-3.16-3.22-4.42a3.33,3.33,0,0,0-3.54-.88A4.8,4.8,0,0,0,118.29,71a12.37,12.37,0,0,0-.93,3.88h0c-.1.7.23.86.89.83a9.37,9.37,0,0,1,3.56.46,2.26,2.26,0,0,1,1.1,3.63,5,5,0,0,1-1.46,1.29c-1.1.71-2.7,1-3.6,2s-1,2.82-1.19,4.09c0,.21,0,.44,0,.68s0,.73.08,1.09a8.11,8.11,0,0,0,.64,1.89l1.87-2a20.85,20.85,0,0,1,4.22-3.5,12.64,12.64,0,0,1,2.46-1.18,6.39,6.39,0,0,1,2.76-.62c1.06.18,1.44-.4,1.78-1.26A15.42,15.42,0,0,1,133,77.8a5.12,5.12,0,0,1,5.21-2,4,4,0,0,1,1.71.76c2.47,2-.71,4.37-2.81,4.48-1.3.07-1.77.93-2.18,1.94-.67,1.64,1,2.27,2,3.29s2.13,2.7,1.61,4.32c-.66,2.08-2.91,1.44-4.33.57a4.86,4.86,0,0,1-.54-.33c-2.63-2.11-5.38-2-8.2-.41a8.91,8.91,0,0,0-4.73,8.5,7.35,7.35,0,0,0,7.89,7.17c1.11,0,.64-2.27.6-3a21,21,0,0,1-.05-4.48c.11-.69.34-1.35,1.13-1.55a2,2,0,0,1,2.13.7,5.07,5.07,0,0,1,.93,1.89c.9,2.76,1.48,5.94,4.75,6.73a2.82,2.82,0,0,0,2.78-.66,7.78,7.78,0,0,0,2-7.07L142,99a10.49,10.49,0,0,1-3.54,1c-1.38.11-2.19-.66-2-1.94.36-2.78,2.73-4.11,5-5.26v0c1.18-.34,1.27-1.12,1.18-2.2-.12-1.46,0-3,0-4.47l0-9.27v-.45a2,2,0,0,0,0-1.76c0-1,0-2,0-3.07a6.68,6.68,0,0,0-.06-1.73c-.25-.91-1.31-.71-2.08-.7a19.82,19.82,0,0,1-3.53,0,2.31,2.31,0,0,1-2.18-2C134.47,65.27,135.77,64.23,137.51,63.77Z" />
    <path class="cls-1"
        d="M165.33,97.74a2.05,2.05,0,0,1,2.13-.7c.79.2,1,.86,1.14,1.55a21.64,21.64,0,0,1,0,4.48c0,.73-.52,3,.59,3A7.35,7.35,0,0,0,177,98.9a8.91,8.91,0,0,0-4.73-8.5c-2.82-1.57-5.56-1.7-8.2.41a4.86,4.86,0,0,1-.54.33c-1.42.87-3.67,1.51-4.33-.57-.52-1.62.56-3.19,1.62-4.32s2.62-1.65,2-3.29c-.41-1-.88-1.87-2.18-1.94-2.1-.11-5.28-2.5-2.8-4.48a4,4,0,0,1,1.7-.76,5.12,5.12,0,0,1,5.21,2,15.19,15.19,0,0,1,2.51,4.43c.34.86.73,1.44,1.78,1.26a6.35,6.35,0,0,1,2.76.62,12.64,12.64,0,0,1,2.46,1.18,20.85,20.85,0,0,1,4.22,3.5l1.87,2a8.11,8.11,0,0,0,.64-1.89c0-.36.05-.73.08-1.09s0-.47,0-.68c-.18-1.27-.26-3.1-1.19-4.09s-2.5-1.25-3.6-2a5,5,0,0,1-1.46-1.29,2.26,2.26,0,0,1,1.1-3.63,9.37,9.37,0,0,1,3.56-.46c.66,0,1-.13.9-.83h0A12.67,12.67,0,0,0,179.4,71a4.8,4.8,0,0,0-2.68-2.73,3.33,3.33,0,0,0-3.54.88c-1.36,1.26-2,3-3.22,4.42-1,1.15-2.41,1.75-2.83-.14a8.94,8.94,0,0,1,2.62-8.55,14.38,14.38,0,0,1,2.65-1.93c.73-.41,1.46-.7,1.22-1.69a2.29,2.29,0,0,0-1-1.36,8.89,8.89,0,0,0-2.88-1.2.91.91,0,0,0-.74.18,12.35,12.35,0,0,1-2.61,1.2c-2.71.82-4-1.3-4.3-3.72-.06-.5.07-1.11-.27-1.49a5,5,0,0,0-2.07-.68,3.84,3.84,0,0,0-3.89,1.17,6,6,0,0,0-.36,6.53c1.17,1.85,2.84,1.44,4.68,1.92s3,1.5,2.68,3.41a2.31,2.31,0,0,1-2.18,2,19.82,19.82,0,0,1-3.53,0c-.77,0-1.83-.21-2.08.7A6.68,6.68,0,0,0,155,71.6c0,1,0,2.05,0,3.07a2,2,0,0,0,0,1.76v.45q0,4.64,0,9.27c0,1.48.13,3,0,4.47-.09,1.08,0,1.86,1.18,2.2v0c2.29,1.15,4.66,2.48,5,5.26.16,1.28-.65,2-2,1.94a10.37,10.37,0,0,1-3.53-1l-.81-.38c-.38,2.72.07,5.12,2,7.07a2.79,2.79,0,0,0,2.77.66c3.27-.79,3.85-4,4.75-6.73A5.07,5.07,0,0,1,165.33,97.74Z" />
    <rect class="cls-1" x="39.4" y="87.19" width="18.22" height="31.01" />
    <rect class="cls-1" x="45.63" y="84.37" width="5.97" height="1.05" />
    <path class="cls-1"
        d="M48.51,119.7a1.86,1.86,0,0,0-1.41.59,2,2,0,0,0-.55,1.38,2.11,2.11,0,0,0,.55,1.51,2,2,0,0,0,2.82,0,2.12,2.12,0,0,0,.56-1.51,2,2,0,0,0-.56-1.38A1.86,1.86,0,0,0,48.51,119.7Z" />
</svg>