<svg xmlns="http://www.w3.org/2000/svg" xmlns:xlink="http://www.w3.org/1999/xlink" viewBox="0 0 209.55 85.94"><defs><style>.cls-1{fill:none;}.cls-2{fill:#364585;}.cls-3{fill:#fff;stroke:#fff;stroke-miterlimit:10;stroke-width:7.64px;}.cls-4{fill:#e6225f;}.cls-5{fill:#a03088;}.cls-6{fill:#2f9fd9;}.cls-7{fill:#008a3c;}.cls-8{fill:#ad599d;}.cls-9{fill:#ea5d1c;}.cls-10{fill:#e3ce29;}.cls-11{clip-path:url(#clip-path);}.cls-12{font-size:14.73px;}.cls-12,.cls-16,.cls-18,.cls-20,.cls-22{fill:#010000;font-family:Gotham-Bold, Gotham;font-weight:700;}.cls-13{clip-path:url(#clip-path-2);}.cls-14{clip-path:url(#clip-path-3);}.cls-15{clip-path:url(#clip-path-4);}.cls-16{font-size:19.18px;}.cls-17{clip-path:url(#clip-path-5);}.cls-18{font-size:17.03px;}.cls-19{clip-path:url(#clip-path-6);}.cls-20{font-size:12.88px;}.cls-21{clip-path:url(#clip-path-7);}.cls-22{font-size:10.7px;}</style><clipPath id="clip-path" transform="translate(6.66 18.88)"><path class="cls-1" d="M185.35,17.73A12.55,12.55,0,0,0,167.61,17a12.73,12.73,0,0,0-2.67,3.5,14.59,14.59,0,0,1-.58,10.17,12.55,12.55,0,1,0,21-12.92Z"/></clipPath><clipPath id="clip-path-2" transform="translate(6.66 18.88)"><path class="cls-1" d="M151,38.69a13.9,13.9,0,1,0-12.36-20.25l.21.47a14.45,14.45,0,0,1,0,11.76l-.21.47A13.88,13.88,0,0,0,151,38.69Z"/></clipPath><clipPath id="clip-path-3" transform="translate(6.66 18.88)"><path class="cls-1" d="M138.33,30.42a13.91,13.91,0,0,0,0-11.26,13.9,13.9,0,0,0-26.61,5.63,13.56,13.56,0,0,0,.21,2.4,13.9,13.9,0,0,0,26.4,3.23Z"/></clipPath><clipPath id="clip-path-4" transform="translate(6.66 18.88)"><path class="cls-1" d="M112.91,17.78a17,17,0,0,0-33.2-.9c.12.18.24.37.35.56a14.57,14.57,0,0,1,1.54,11l-.18.63a17,17,0,0,0,30.08-.92c-.07-.28-.13-.57-.18-.86a14.89,14.89,0,0,1-.21-2.5,14.37,14.37,0,0,1,1.4-6.23C112.64,18.29,112.77,18,112.91,17.78Z"/></clipPath><clipPath id="clip-path-5" transform="translate(6.66 18.88)"><path class="cls-1" d="M81,28.28A13.9,13.9,0,1,0,67.55,38.69,13.79,13.79,0,0,0,81,28.28Z"/></clipPath><clipPath id="clip-path-6" transform="translate(6.66 18.88)"><path class="cls-1" d="M54.21,30.52a14.48,14.48,0,0,1,0-11.45c.07-.17.14-.33.22-.5a13.9,13.9,0,1,0,0,12.44h0C54.35,30.85,54.28,30.68,54.21,30.52Z"/></clipPath><clipPath id="clip-path-7" transform="translate(6.66 18.88)"><path class="cls-1" d="M27.45,24.79a14.55,14.55,0,0,1,.63-4.24,12.57,12.57,0,1,0,.11,8.83A14.57,14.57,0,0,1,27.45,24.79Z"/></clipPath></defs><g id="Capa_2" data-name="Capa 2"><g id="Capa_1-2" data-name="Capa 1"><path class="cls-2" d="M59.21,65.74V64.4a1.26,1.26,0,0,1,1.35-1.32,1.23,1.23,0,0,1,1.34,1.34c0,.07,0,.11-.1.11h-.25c-.06,0-.09,0-.11-.11a.81.81,0,0,0-.88-.89.83.83,0,0,0-.89.88v1.32a.83.83,0,0,0,.89.89.82.82,0,0,0,.88-.9c0-.07.05-.11.11-.11h.25c.07,0,.1,0,.1.12a1.21,1.21,0,0,1-1.34,1.33A1.26,1.26,0,0,1,59.21,65.74Z" transform="translate(6.66 18.88)"/><path class="cls-2" d="M64.85,63.6v1.23H66.3a.11.11,0,0,1,.11.12v.21a.11.11,0,0,1-.11.12H64.85v1.27H66.5a.1.1,0,0,1,.11.11v.22a.11.11,0,0,1-.11.12h-2a.11.11,0,0,1-.11-.12V63.27a.11.11,0,0,1,.11-.12h2a.11.11,0,0,1,.11.12v.21a.11.11,0,0,1-.11.12Z" transform="translate(6.66 18.88)"/><path class="cls-2" d="M69.09,66.89V63.26c0-.07,0-.11.1-.11h.37a.12.12,0,0,1,.12.08l1.59,3h0l0-.24V63.26c0-.07,0-.11.1-.11h.25a.1.1,0,0,1,.1.11v3.63a.1.1,0,0,1-.1.11h-.36a.13.13,0,0,1-.13-.09l-1.59-3h0l0,.25v2.71a.1.1,0,0,1-.1.11h-.25C69.12,67,69.09,67,69.09,66.89Z" transform="translate(6.66 18.88)"/><path class="cls-2" d="M76.67,63.27v.21a.11.11,0,0,1-.11.12h-1v3.27c0,.08,0,.13-.11.13h-.23c-.07,0-.11,0-.11-.13V63.6h-1a.12.12,0,0,1-.12-.12v-.21a.12.12,0,0,1,.12-.12h2.35A.11.11,0,0,1,76.67,63.27Z" transform="translate(6.66 18.88)"/><path class="cls-2" d="M81.58,66.86c0,.08,0,.14-.08.14h-.29c-.06,0-.1,0-.14-.1l-.71-1.33h-.89v1.3c0,.08,0,.13-.11.13h-.23a.12.12,0,0,1-.12-.13v-3.6a.12.12,0,0,1,.12-.12h1.36a1.09,1.09,0,0,1,1.12,1.2,1.13,1.13,0,0,1-.78,1.17Zm-2.11-1.74h1a.76.76,0,0,0,0-1.52h-1Z" transform="translate(6.66 18.88)"/><path class="cls-2" d="M83.89,65.72V64.43a1.38,1.38,0,0,1,2.75,0v1.29a1.38,1.38,0,0,1-2.75,0Zm2.29,0V64.44a.92.92,0,0,0-1.83,0V65.7a.92.92,0,1,0,1.83,0Z" transform="translate(6.66 18.88)"/><path class="cls-2" d="M91.87,65.74V64.4a1.26,1.26,0,0,1,1.35-1.32,1.23,1.23,0,0,1,1.35,1.34.1.1,0,0,1-.1.11h-.26c-.06,0-.09,0-.1-.11a.89.89,0,0,0-1.78,0v1.32a.89.89,0,1,0,1.78,0c0-.07,0-.11.1-.11h.26c.06,0,.1,0,.1.12a1.22,1.22,0,0,1-1.35,1.33A1.26,1.26,0,0,1,91.87,65.74Z" transform="translate(6.66 18.88)"/><path class="cls-2" d="M96.91,65.72V64.43a1.38,1.38,0,0,1,2.75,0v1.29a1.38,1.38,0,0,1-2.75,0Zm2.3,0V64.44a.92.92,0,0,0-1.84,0V65.7a.92.92,0,1,0,1.84,0Z" transform="translate(6.66 18.88)"/><path class="cls-2" d="M102.17,66.87v-3.6a.11.11,0,0,1,.11-.12h.4a.14.14,0,0,1,.14.1l1,2.18h0l1-2.18a.13.13,0,0,1,.13-.1h.39a.11.11,0,0,1,.11.12v3.6c0,.08,0,.13-.11.13h-.23a.12.12,0,0,1-.12-.13V64.16l0-.25h0l-1,2.06a.13.13,0,0,1-.13.1h-.16a.13.13,0,0,1-.13-.1l-1-2.06h0l0,.25v2.71c0,.08,0,.13-.11.13h-.23C102.21,67,102.17,67,102.17,66.87Z" transform="translate(6.66 18.88)"/><path class="cls-2" d="M108.65,63.6v1.23h1.46c.07,0,.1,0,.1.12v.21c0,.07,0,.12-.1.12h-1.46v1.27h1.66c.07,0,.1,0,.1.11v.22c0,.07,0,.12-.1.12h-2a.11.11,0,0,1-.11-.12V63.27a.11.11,0,0,1,.11-.12h2c.07,0,.1.05.1.12v.21c0,.07,0,.12-.1.12Z" transform="translate(6.66 18.88)"/><path class="cls-2" d="M115.45,66.86c0,.08,0,.14-.07.14h-.29a.15.15,0,0,1-.14-.1l-.72-1.33h-.88v1.3c0,.08,0,.13-.11.13H113c-.07,0-.11,0-.11-.13v-3.6a.11.11,0,0,1,.11-.12h1.37a1.09,1.09,0,0,1,1.12,1.2,1.13,1.13,0,0,1-.78,1.17Zm-2.1-1.74h1a.76.76,0,0,0,0-1.52h-1Z" transform="translate(6.66 18.88)"/><path class="cls-2" d="M117.77,65.74V64.4a1.26,1.26,0,0,1,1.35-1.32,1.23,1.23,0,0,1,1.34,1.34.1.1,0,0,1-.1.11h-.26c-.06,0-.09,0-.1-.11a.82.82,0,0,0-.88-.89.84.84,0,0,0-.9.88v1.32a.84.84,0,0,0,.9.89.82.82,0,0,0,.88-.9c0-.07,0-.11.1-.11h.26c.06,0,.1,0,.1.12a1.21,1.21,0,0,1-1.34,1.33A1.26,1.26,0,0,1,117.77,65.74Z" transform="translate(6.66 18.88)"/><path class="cls-2" d="M123,66.87v-3.6a.11.11,0,0,1,.11-.12h.24c.07,0,.1.05.1.12v3.6c0,.08,0,.13-.1.13h-.24C123,67,123,67,123,66.87Z" transform="translate(6.66 18.88)"/><path class="cls-2" d="M128.69,67h-.28a.13.13,0,0,1-.12-.1L128,66h-1.5l-.26.86a.13.13,0,0,1-.12.1h-.27c-.08,0-.12,0-.1-.14l1.16-3.61a.12.12,0,0,1,.13-.1h.44a.11.11,0,0,1,.12.1l1.16,3.61C128.81,67,128.78,67,128.69,67Zm-.8-1.4-.59-2h0l-.6,2Z" transform="translate(6.66 18.88)"/><path class="cls-2" d="M133.27,66.67v.2c0,.08,0,.13-.1.13h-1.89c-.07,0-.11,0-.11-.13v-3.6a.11.11,0,0,1,.11-.12h.23a.11.11,0,0,1,.11.12v3.28h1.55C133.24,66.55,133.27,66.59,133.27,66.67Z" transform="translate(6.66 18.88)"/><path class="cls-2" d="M55.6,59.12V45.82h2.32V57.21h6.3v1.91Z" transform="translate(6.66 18.88)"/><path class="cls-2" d="M69,59.26a4.12,4.12,0,0,1-2.63-.79,2.62,2.62,0,0,1-1-2.19,2.58,2.58,0,0,1,.8-1.85,3.86,3.86,0,0,1,2.88-1h1.87v-.69c0-.95-.57-1.42-1.7-1.42a4.3,4.3,0,0,0-2.36.73l-1.08-1.38a5.29,5.29,0,0,1,1.68-.84,5.5,5.5,0,0,1,1.66-.28q4,0,4,3.28v3.35A2.88,2.88,0,0,1,72.51,58C71.85,58.83,70.67,59.26,69,59.26Zm1.91-4.1H69.24q-1.68,0-1.68,1.17a1,1,0,0,0,.49.88,2,2,0,0,0,1.12.28c1.13,0,1.7-.42,1.7-1.27Z" transform="translate(6.66 18.88)"/><path class="cls-2" d="M78.06,59.26a6.82,6.82,0,0,1-3.89-1.17l1-1.65a5.11,5.11,0,0,0,3.07,1.05,1.85,1.85,0,0,0,1.17-.34,1,1,0,0,0,.45-.82,1,1,0,0,0-1-1.16L77.2,55a3.77,3.77,0,0,1-1.93-.82,2.31,2.31,0,0,1-.84-1.81,2.49,2.49,0,0,1,1.07-2.1A4.22,4.22,0,0,1,78,49.5a7.39,7.39,0,0,1,3.68,1.06l-1,1.59A5.58,5.58,0,0,0,78,51.27c-.93,0-1.4.35-1.4,1.06,0,.44.37.75,1.12.92l1.49.17a3.37,3.37,0,0,1,2,.86,2.62,2.62,0,0,1,.85,2A2.54,2.54,0,0,1,80.8,58.5,4.79,4.79,0,0,1,78.06,59.26Z" transform="translate(6.66 18.88)"/><path class="cls-2" d="M94.63,59.12H89V45.82h5.19a4.16,4.16,0,0,1,3,1,3.52,3.52,0,0,1,1,2.67,2.89,2.89,0,0,1-1.6,2.72A2.79,2.79,0,0,1,98,53.47a3.64,3.64,0,0,1,.45,1.8,3.73,3.73,0,0,1-3.77,3.85ZM94,47.61H91.32v3.81H94a1.89,1.89,0,0,0,1.44-.56,1.81,1.81,0,0,0,.47-1.27,2,2,0,0,0-.47-1.33A1.79,1.79,0,0,0,94,47.61Zm.17,5.6H91.32v4h2.82a1.77,1.77,0,0,0,1.46-.67,2.22,2.22,0,0,0,.46-1.4,2,2,0,0,0-.46-1.33A1.84,1.84,0,0,0,94.14,53.21Z" transform="translate(6.66 18.88)"/><path class="cls-2" d="M105.26,51.83a3.62,3.62,0,0,0-1.74-.56,2.71,2.71,0,0,0-1.65.49v7.41H99.65V51.1a16.53,16.53,0,0,1,1.68-1,6.67,6.67,0,0,1,2.79-.58,4,4,0,0,1,2.16.59Z" transform="translate(6.66 18.88)"/><path class="cls-2" d="M107.59,59.12V49.55h2.2v9.57Zm2.2-11.89a1.11,1.11,0,1,0-1.11,1.11A1.11,1.11,0,0,0,109.79,47.23Z" transform="translate(6.66 18.88)"/><path class="cls-2" d="M114.86,59.26A6.8,6.8,0,0,1,111,58.09l1-1.65A5.11,5.11,0,0,0,115,57.49a1.87,1.87,0,0,0,1.17-.34,1,1,0,0,0,.45-.82,1,1,0,0,0-1-1.16L114,55a3.77,3.77,0,0,1-1.93-.82,2.31,2.31,0,0,1-.84-1.81,2.49,2.49,0,0,1,1.07-2.1,4.2,4.2,0,0,1,2.54-.72,7.39,7.39,0,0,1,3.68,1.06l-1,1.59a5.58,5.58,0,0,0-2.67-.88c-.94,0-1.4.35-1.4,1.06,0,.44.37.75,1.12.92l1.49.17a3.37,3.37,0,0,1,2,.86,2.64,2.64,0,0,1,.84,2,2.53,2.53,0,0,1-1.25,2.22A4.79,4.79,0,0,1,114.86,59.26Z" transform="translate(6.66 18.88)"/><path class="cls-2" d="M123.79,59.26a4.13,4.13,0,0,1-2.64-.79,2.64,2.64,0,0,1-1-2.19,2.55,2.55,0,0,1,.81-1.85,3.82,3.82,0,0,1,2.87-1h1.87v-.69c0-.95-.57-1.42-1.7-1.42a4.27,4.27,0,0,0-2.35.73l-1.09-1.38a5.24,5.24,0,0,1,1.69-.84,5.45,5.45,0,0,1,1.66-.28c2.68,0,4,1.09,4,3.28v3.35a2.88,2.88,0,0,1-.58,1.83C126.67,58.83,125.49,59.26,123.79,59.26Zm1.9-4.1h-1.62c-1.13,0-1.69.39-1.69,1.17a1,1,0,0,0,.49.88,2,2,0,0,0,1.12.28c1.13,0,1.7-.42,1.7-1.27Z" transform="translate(6.66 18.88)"/><path class="cls-2" d="M132.88,59.26A6.79,6.79,0,0,1,129,58.09l1-1.65A5.1,5.1,0,0,0,133,57.49a1.88,1.88,0,0,0,1.18-.34,1,1,0,0,0,.45-.82,1.05,1.05,0,0,0-1-1.16L132,55a3.73,3.73,0,0,1-1.92-.82,2.31,2.31,0,0,1-.84-1.81,2.48,2.48,0,0,1,1.06-2.1,4.22,4.22,0,0,1,2.54-.72,7.37,7.37,0,0,1,3.68,1.06l-1,1.59a5.65,5.65,0,0,0-2.68-.88c-.93,0-1.4.35-1.4,1.06,0,.44.38.75,1.12.92l1.5.17a3.4,3.4,0,0,1,2,.86,2.64,2.64,0,0,1,.84,2,2.55,2.55,0,0,1-1.25,2.22A4.83,4.83,0,0,1,132.88,59.26Z" transform="translate(6.66 18.88)"/><path class="cls-3" d="M138.33,30.42a13.91,13.91,0,0,0,0-11.26,13.9,13.9,0,0,0-26.61,5.63,13.56,13.56,0,0,0,.21,2.4,13.9,13.9,0,0,0,26.4,3.23Z" transform="translate(6.66 18.88)"/><path class="cls-3" d="M151,38.69a13.9,13.9,0,1,0-12.36-20.25l.21.47a14.45,14.45,0,0,1,0,11.76l-.21.47A13.88,13.88,0,0,0,151,38.69Z" transform="translate(6.66 18.88)"/><path class="cls-3" d="M185.35,17.73A12.55,12.55,0,0,0,167.61,17a12.73,12.73,0,0,0-2.67,3.5,14.59,14.59,0,0,1-.58,10.17,12.55,12.55,0,1,0,21-12.92Z" transform="translate(6.66 18.88)"/><path class="cls-3" d="M112.91,17.78a17,17,0,0,0-33.2-.9c.12.18.24.37.35.56a14.57,14.57,0,0,1,1.54,11l-.18.63a17,17,0,0,0,30.08-.92c-.07-.28-.13-.57-.18-.86a14.89,14.89,0,0,1-.21-2.5,14.37,14.37,0,0,1,1.4-6.23C112.64,18.29,112.77,18,112.91,17.78Z" transform="translate(6.66 18.88)"/><path class="cls-3" d="M81,28.28A13.9,13.9,0,1,0,67.55,38.69,13.79,13.79,0,0,0,81,28.28Z" transform="translate(6.66 18.88)"/><path class="cls-3" d="M54.21,30.52a14.48,14.48,0,0,1,0-11.45c.07-.17.14-.33.22-.5a13.9,13.9,0,1,0,0,12.44h0C54.35,30.85,54.28,30.68,54.21,30.52Z" transform="translate(6.66 18.88)"/><path class="cls-3" d="M27.45,24.79a14.55,14.55,0,0,1,.63-4.24,12.57,12.57,0,1,0,.11,8.83A14.57,14.57,0,0,1,27.45,24.79Z" transform="translate(6.66 18.88)"/><path class="cls-4" d="M96.22,37.91a17.15,17.15,0,0,1-15-8.76l0-.06,0-.07.18-.63a14.49,14.49,0,0,0,.45-3.6,14.34,14.34,0,0,0-2-7.27c-.11-.19-.23-.37-.35-.55l0-.06,0-.07a17.13,17.13,0,0,1,33.53.91v.06l0,.05c-.14.25-.27.51-.4.77a14.19,14.19,0,0,0-1.38,6.16,14.53,14.53,0,0,0,.21,2.47c.05.28.1.56.17.85l0,.06,0,0A17.22,17.22,0,0,1,96.22,37.91ZM81.6,29.05a16.79,16.79,0,0,0,29.72-.92c-.06-.27-.12-.55-.16-.81a14.25,14.25,0,0,1-.22-2.53,14.52,14.52,0,0,1,1.42-6.3c.12-.25.25-.5.38-.74a16.8,16.8,0,0,0-32.85-.9c.11.16.21.33.32.5a14.71,14.71,0,0,1,1.55,11.13C81.71,28.67,81.66,28.86,81.6,29.05Z" transform="translate(6.66 18.88)"/><path class="cls-5" d="M125.62,38.86a14,14,0,0,1-13.86-11.64,15.13,15.13,0,0,1-.2-2.43,13.82,13.82,0,0,1,1.36-6,14.07,14.07,0,0,1,25.57,11.74h0A14.11,14.11,0,0,1,125.62,38.86Zm0-27.8a13.79,13.79,0,0,0-12.4,7.84,13.57,13.57,0,0,0-1.33,5.89,13.39,13.39,0,0,0,.21,2.37,13.73,13.73,0,0,0,26.08,3.2h0a13.74,13.74,0,0,0-12.56-19.3Z" transform="translate(6.66 18.88)"/><path class="cls-6" d="M151,38.86a14,14,0,0,1-12.51-7.64l0-.07,0-.08c.08-.15.15-.31.22-.47a14.34,14.34,0,0,0,0-11.62l-.21-.46,0-.08,0-.07A14.06,14.06,0,1,1,151,38.86Zm-12.18-7.72a13.74,13.74,0,1,0,0-12.69c.07.13.13.26.19.39a14.68,14.68,0,0,1,0,11.9C139,30.88,138.93,31,138.86,31.14Z" transform="translate(6.66 18.88)"/><path class="cls-7" d="M67.55,38.86a14,14,0,0,1-12.93-8.52,14.08,14.08,0,0,1,0-11.1,14.07,14.07,0,0,1,27,5.55,14.34,14.34,0,0,1-.44,3.53A14.07,14.07,0,0,1,67.55,38.86Zm0-27.8a13.72,13.72,0,0,0-12.62,8.32,13.76,13.76,0,0,0,0,10.83,13.73,13.73,0,0,0,25.91-2h0A13.72,13.72,0,0,0,67.55,11.06Z" transform="translate(6.66 18.88)"/><path class="cls-8" d="M28.54,28.26a13.69,13.69,0,0,1-.44-3.47,14.46,14.46,0,0,1,.35-3.11h0a14.46,14.46,0,0,0-.35,3.11,13.69,13.69,0,0,0,.44,3.47Z" transform="translate(6.66 18.88)"/><path class="cls-8" d="M16.35,37.84A12.72,12.72,0,1,1,28.23,20.49l0,.06v.05a14.24,14.24,0,0,0,.11,8.72l0,.06,0,.05A12.69,12.69,0,0,1,18,37.73,11.85,11.85,0,0,1,16.35,37.84Zm0-25.11a12.74,12.74,0,0,0-1.63.1A12.39,12.39,0,1,0,28,29.37a14.53,14.53,0,0,1-.73-4.58,14.78,14.78,0,0,1,.62-4.23A12.35,12.35,0,0,0,16.4,12.73Z" transform="translate(6.66 18.88)"/><path class="cls-9" d="M176.11,39a12.71,12.71,0,0,1-11.91-8.24l0-.06,0-.07a14.41,14.41,0,0,0,.58-10l0-.06,0-.06a12.73,12.73,0,0,1,20.68-2.79h0A12.72,12.72,0,0,1,176.11,39Zm-11.57-8.29a12.39,12.39,0,1,0,20.69-12.82,12.4,12.4,0,0,0-20.11,2.66,14.48,14.48,0,0,1,.64,4.29A14.63,14.63,0,0,1,164.54,30.66Z" transform="translate(6.66 18.88)"/><path class="cls-10" d="M42,38.86A14.07,14.07,0,1,1,54.58,18.5l0,.07,0,.07c-.08.16-.15.33-.22.49a14.39,14.39,0,0,0,0,11.32h0c.07.17.14.33.22.49l0,.07v0l0,0A14,14,0,0,1,42,38.86Zm0-27.8A13.73,13.73,0,1,0,54.24,31c-.06-.14-.13-.28-.19-.43a14.68,14.68,0,0,1,0-11.58l.19-.42A13.65,13.65,0,0,0,42,11.06Z" transform="translate(6.66 18.88)"/><g class="cls-11"><text class="cls-12" transform="translate(178.98 49.05)">o</text><path class="cls-9" d="M183.16,21.09a7.68,7.68,0,1,1-10.85-.46A7.67,7.67,0,0,1,183.16,21.09Zm-10.36.07a7,7,0,1,0,9.84.41A7,7,0,0,0,172.8,21.16Z" transform="translate(6.66 18.88)"/><path class="cls-9" d="M177.52,34.68h-.36a8.39,8.39,0,1,1,6.53-14.07,8.39,8.39,0,0,1-6.17,14.08Zm0-16.45a8.06,8.06,0,0,0-5.92,13.51,8,8,0,0,0,11.38.48h0a8.06,8.06,0,0,0-5.11-14Z" transform="translate(6.66 18.88)"/><text class="cls-12" transform="translate(172.33 32.63)">o</text><path class="cls-9" d="M176.52,4.67a7.68,7.68,0,1,1-10.85-.46A7.68,7.68,0,0,1,176.52,4.67Zm-10.37.07a7,7,0,1,0,9.84.41A7,7,0,0,0,166.15,4.74Z" transform="translate(6.66 18.88)"/><path class="cls-9" d="M170.87,18.26h-.36a8.4,8.4,0,0,1-5.33-14.57,8.4,8.4,0,1,1,11.37,12.36A8.37,8.37,0,0,1,170.87,18.26Zm0-16.45a8.06,8.06,0,0,0-5.93,13.51,8.06,8.06,0,0,0,11.39.48h0a8.05,8.05,0,0,0-5.12-14Z" transform="translate(6.66 18.88)"/><text class="cls-12" transform="translate(161.99 53.23)">o</text><path class="cls-9" d="M166.18,25.26a7.68,7.68,0,1,1-10.86-.45A7.69,7.69,0,0,1,166.18,25.26Zm-10.37.07a7,7,0,1,0,9.84.42A7,7,0,0,0,155.81,25.33Z" transform="translate(6.66 18.88)"/><path class="cls-9" d="M160.53,38.86h-.36a8.4,8.4,0,1,1,6.53-14.07,8.4,8.4,0,0,1-.5,11.86A8.31,8.31,0,0,1,160.53,38.86Zm0-16.46a8.06,8.06,0,1,0,5.47,14h0a8.06,8.06,0,0,0-5.12-14Z" transform="translate(6.66 18.88)"/><text class="cls-12" transform="translate(183.15 65.66)">o</text><path class="cls-9" d="M187.34,37.69a7.68,7.68,0,1,1-10.85-.45A7.68,7.68,0,0,1,187.34,37.69ZM177,37.77a7,7,0,1,0,9.84.41A7,7,0,0,0,177,37.77Z" transform="translate(6.66 18.88)"/><path class="cls-9" d="M181.69,51.29h-.36a8.25,8.25,0,1,1,.36,0Zm0-16.45a8.06,8.06,0,1,0,5.46,14h0a8.06,8.06,0,0,0-5.12-14Z" transform="translate(6.66 18.88)"/><text class="cls-12" transform="translate(195.96 44.4)">o</text><path class="cls-9" d="M200.15,16.44A7.68,7.68,0,1,1,189.3,16,7.68,7.68,0,0,1,200.15,16.44Zm-10.37.07a7,7,0,1,0,9.84.41A7,7,0,0,0,189.78,16.51Z" transform="translate(6.66 18.88)"/><path class="cls-9" d="M194.51,30h-.37A8.39,8.39,0,1,1,200.68,16,8.39,8.39,0,0,1,194.51,30Zm0-16.45A8,8,0,0,0,189,15.7a8.06,8.06,0,0,0-.48,11.39,8.06,8.06,0,0,0,11.39.48h0a8.06,8.06,0,0,0-5.11-14Z" transform="translate(6.66 18.88)"/></g><g class="cls-13"><path class="cls-6" d="M152.63,35.7a10.5,10.5,0,1,0-10.5-10.5A10.5,10.5,0,0,0,152.63,35.7Zm0-20.12A9.63,9.63,0,1,1,143,25.2,9.62,9.62,0,0,1,152.63,15.58Z" transform="translate(6.66 18.88)"/><text class="cls-12" transform="translate(152.94 49.05)">G</text><path class="cls-6" d="M152.63,36.45a11.25,11.25,0,1,1,11.24-11.24A11.26,11.26,0,0,1,152.63,36.45Zm0-22.15a10.91,10.91,0,1,0,10.91,10.91A10.92,10.92,0,0,0,152.63,14.3Z" transform="translate(6.66 18.88)"/><path class="cls-6" d="M151.44,58.72a10.5,10.5,0,1,0-10.5-10.5A10.5,10.5,0,0,0,151.44,58.72Zm0-20.12a9.62,9.62,0,1,1-9.62,9.62A9.62,9.62,0,0,1,151.44,38.6Z" transform="translate(6.66 18.88)"/><text class="cls-12" transform="translate(151.75 72.06)">G</text><path class="cls-6" d="M151.44,59.46a11.24,11.24,0,1,1,11.24-11.24A11.26,11.26,0,0,1,151.44,59.46Zm0-22.15a10.91,10.91,0,1,0,10.9,10.91A10.92,10.92,0,0,0,151.44,37.31Z" transform="translate(6.66 18.88)"/><path class="cls-6" d="M153.4,12.26a10.49,10.49,0,0,0,10.49-10.5,10.5,10.5,0,1,0-10.49,10.5Zm0-20.12a9.63,9.63,0,1,1-9.62,9.62A9.62,9.62,0,0,1,153.4-7.86Z" transform="translate(6.66 18.88)"/><text class="cls-12" transform="translate(153.71 25.61)">G</text><path class="cls-6" d="M153.4,13A11.26,11.26,0,0,1,142.16,1.76a11.24,11.24,0,1,1,22.48,0A11.26,11.26,0,0,1,153.4,13Zm0-22.15a10.91,10.91,0,0,0-10.91,10.9,10.91,10.91,0,1,0,21.81,0A10.91,10.91,0,0,0,153.4-9.14Z" transform="translate(6.66 18.88)"/><path class="cls-6" d="M129.53,35.45A10.5,10.5,0,1,0,119,25,10.5,10.5,0,0,0,129.53,35.45Zm0-20.12A9.62,9.62,0,1,1,119.91,25,9.62,9.62,0,0,1,129.53,15.33Z" transform="translate(6.66 18.88)"/><text class="cls-12" transform="translate(129.84 48.79)">G</text><path class="cls-6" d="M129.53,36.19A11.25,11.25,0,1,1,140.77,25,11.25,11.25,0,0,1,129.53,36.19Zm0-22.15A10.91,10.91,0,1,0,140.44,25,10.92,10.92,0,0,0,129.53,14Z" transform="translate(6.66 18.88)"/></g><g class="cls-14"><path class="cls-5" d="M124.31,13.09a10.5,10.5,0,1,0,10.49,10.5A10.5,10.5,0,0,0,124.31,13.09Zm0,20.12a9.63,9.63,0,1,1,9.62-9.62A9.63,9.63,0,0,1,124.31,33.21Z" transform="translate(6.66 18.88)"/><text class="cls-12" transform="translate(124.93 47.57)">N</text><path class="cls-5" d="M124.31,34.83a11.25,11.25,0,1,1,11.24-11.24A11.26,11.26,0,0,1,124.31,34.83Zm0-22.15a10.91,10.91,0,1,0,10.9,10.91A10.92,10.92,0,0,0,124.31,12.68Z" transform="translate(6.66 18.88)"/><path class="cls-5" d="M145.7,23.57a10.5,10.5,0,1,0,10.5,10.5A10.5,10.5,0,0,0,145.7,23.57Zm0,20.12a9.62,9.62,0,1,1,9.62-9.62A9.62,9.62,0,0,1,145.7,43.69Z" transform="translate(6.66 18.88)"/><text class="cls-12" transform="translate(146.33 58.05)">N</text><path class="cls-5" d="M145.7,45.31a11.24,11.24,0,1,1,11.24-11.24A11.25,11.25,0,0,1,145.7,45.31Zm0-22.15a10.91,10.91,0,1,0,10.91,10.91A10.92,10.92,0,0,0,145.7,23.16Z" transform="translate(6.66 18.88)"/><path class="cls-5" d="M120.47,36.19A10.5,10.5,0,1,0,131,46.69,10.5,10.5,0,0,0,120.47,36.19Zm0,20.12a9.63,9.63,0,1,1,9.62-9.62A9.62,9.62,0,0,1,120.47,56.31Z" transform="translate(6.66 18.88)"/><text class="cls-12" transform="translate(121.1 70.67)">N</text><path class="cls-5" d="M120.47,57.93a11.25,11.25,0,1,1,11.24-11.24A11.25,11.25,0,0,1,120.47,57.93Zm0-22.15a10.91,10.91,0,1,0,10.91,10.91A10.92,10.92,0,0,0,120.47,35.78Z" transform="translate(6.66 18.88)"/><path class="cls-5" d="M139.39-4.81a10.5,10.5,0,1,0,10.5,10.5A10.49,10.49,0,0,0,139.39-4.81Zm0,20.12A9.63,9.63,0,1,1,149,5.69,9.62,9.62,0,0,1,139.39,15.31Z" transform="translate(6.66 18.88)"/><text class="cls-12" transform="translate(140.02 29.67)">N</text><path class="cls-5" d="M139.39,16.93A11.25,11.25,0,1,1,150.64,5.69,11.25,11.25,0,0,1,139.39,16.93Zm0-22.15A10.91,10.91,0,1,0,150.3,5.69,10.91,10.91,0,0,0,139.39-5.22Z" transform="translate(6.66 18.88)"/></g><g class="cls-15"><path class="cls-4" d="M96.32,10.38a12.81,12.81,0,1,0,12.81,12.81A12.8,12.8,0,0,0,96.32,10.38Zm0,24.55a11.74,11.74,0,1,1,11.74-11.74A11.74,11.74,0,0,1,96.32,34.93Z" transform="translate(6.66 18.88)"/><text class="cls-16" transform="translate(96.28 49.05)">E</text><path class="cls-4" d="M96.32,36.87A13.68,13.68,0,1,1,110,23.19,13.69,13.69,0,0,1,96.32,36.87Zm0-27a13.35,13.35,0,1,0,13.35,13.35A13.37,13.37,0,0,0,96.32,9.84Z" transform="translate(6.66 18.88)"/><path class="cls-4" d="M94.19-18A12.81,12.81,0,0,0,81.38-5.19,12.81,12.81,0,0,0,94.19,7.62,12.81,12.81,0,0,0,107-5.19,12.81,12.81,0,0,0,94.19-18Zm0,24.56A11.74,11.74,0,0,1,82.45-5.19,11.75,11.75,0,0,1,94.19-16.94,11.75,11.75,0,0,1,105.93-5.19,11.74,11.74,0,0,1,94.19,6.55Z" transform="translate(6.66 18.88)"/><text class="cls-16" transform="translate(94.14 20.66)">E</text><path class="cls-4" d="M94.19,8.49A13.7,13.7,0,0,1,80.5-5.19,13.7,13.7,0,0,1,94.19-18.88,13.7,13.7,0,0,1,107.87-5.19,13.7,13.7,0,0,1,94.19,8.49Zm0-27A13.37,13.37,0,0,0,80.84-5.19,13.36,13.36,0,0,0,94.19,8.15,13.36,13.36,0,0,0,107.54-5.19,13.37,13.37,0,0,0,94.19-18.54Z" transform="translate(6.66 18.88)"/><path class="cls-4" d="M68.36,3.81A12.82,12.82,0,1,0,81.17,16.63,12.82,12.82,0,0,0,68.36,3.81Zm0,24.56A11.74,11.74,0,1,1,80.1,16.63,11.74,11.74,0,0,1,68.36,28.37Z" transform="translate(6.66 18.88)"/><text class="cls-16" transform="translate(68.32 42.48)">E</text><path class="cls-4" d="M68.36,30.31A13.69,13.69,0,1,1,82,16.63,13.7,13.7,0,0,1,68.36,30.31Zm0-27A13.35,13.35,0,1,0,81.71,16.63,13.37,13.37,0,0,0,68.36,3.28Z" transform="translate(6.66 18.88)"/><path class="cls-4" d="M122.49-.28A12.82,12.82,0,1,0,135.3,12.54,12.81,12.81,0,0,0,122.49-.28Zm0,24.56a11.75,11.75,0,1,1,11.74-11.74A11.74,11.74,0,0,1,122.49,24.28Z" transform="translate(6.66 18.88)"/><text class="cls-16" transform="translate(122.44 38.39)">E</text><path class="cls-4" d="M122.49,26.22a13.69,13.69,0,1,1,13.68-13.68A13.7,13.7,0,0,1,122.49,26.22Zm0-27a13.35,13.35,0,1,0,13.35,13.35A13.37,13.37,0,0,0,122.49-.81Z" transform="translate(6.66 18.88)"/></g><g class="cls-17"><path class="cls-7" d="M68,12.21a10.5,10.5,0,1,0,10.49,10.5A10.5,10.5,0,0,0,68,12.21Zm0,20.12a9.62,9.62,0,1,1,9.62-9.62A9.62,9.62,0,0,1,68,32.33Z" transform="translate(6.66 18.88)"/><text class="cls-18" transform="translate(69.11 48.45)">T</text><path class="cls-7" d="M68,34A11.24,11.24,0,1,1,79.23,22.71,11.26,11.26,0,0,1,68,34ZM68,11.8a10.91,10.91,0,1,0,10.9,10.91A10.92,10.92,0,0,0,68,11.8Z" transform="translate(6.66 18.88)"/><path class="cls-7" d="M46,19.27a10.5,10.5,0,1,0,10.49,10.5A10.5,10.5,0,0,0,46,19.27Zm0,20.12a9.62,9.62,0,1,1,9.62-9.62A9.61,9.61,0,0,1,46,39.39Z" transform="translate(6.66 18.88)"/><text class="cls-18" transform="translate(47.15 55.51)">T</text><path class="cls-7" d="M46,41A11.24,11.24,0,1,1,57.27,29.77,11.26,11.26,0,0,1,46,41Zm0-22.15a10.91,10.91,0,1,0,10.9,10.91A10.92,10.92,0,0,0,46,18.86Z" transform="translate(6.66 18.88)"/><path class="cls-7" d="M67.76,35.33a10.5,10.5,0,1,0,10.5,10.5A10.51,10.51,0,0,0,67.76,35.33Zm0,20.12a9.62,9.62,0,1,1,9.63-9.62A9.62,9.62,0,0,1,67.76,55.45Z" transform="translate(6.66 18.88)"/><text class="cls-18" transform="translate(68.89 71.57)">T</text><path class="cls-7" d="M67.76,57.07A11.25,11.25,0,1,1,79,45.83,11.25,11.25,0,0,1,67.76,57.07Zm0-22.15A10.91,10.91,0,1,0,78.67,45.83,10.91,10.91,0,0,0,67.76,34.92Z" transform="translate(6.66 18.88)"/><path class="cls-7" d="M89.67,20.32a10.5,10.5,0,1,0,10.5,10.5A10.5,10.5,0,0,0,89.67,20.32Zm0,20.12a9.62,9.62,0,1,1,9.62-9.62A9.62,9.62,0,0,1,89.67,40.44Z" transform="translate(6.66 18.88)"/><text class="cls-18" transform="translate(90.79 56.56)">T</text><path class="cls-7" d="M89.67,42.06a11.24,11.24,0,1,1,11.24-11.24A11.26,11.26,0,0,1,89.67,42.06Zm0-22.15a10.91,10.91,0,1,0,10.91,10.91A10.92,10.92,0,0,0,89.67,19.91Z" transform="translate(6.66 18.88)"/></g><g class="cls-19"><text class="cls-20" transform="translate(40.84 48.04)">O</text><path class="cls-10" d="M40.22,36A11.25,11.25,0,1,1,51.46,24.79,11.27,11.27,0,0,1,40.22,36Zm0-22.15a10.91,10.91,0,1,0,10.9,10.9A10.91,10.91,0,0,0,40.22,13.89Z" transform="translate(6.66 18.88)"/><path class="cls-10" d="M40.22,14.29a10.5,10.5,0,1,0,10.49,10.5A10.5,10.5,0,0,0,40.22,14.29Zm0,20.13a9.63,9.63,0,1,1,9.62-9.63A9.62,9.62,0,0,1,40.22,34.42Z" transform="translate(6.66 18.88)"/><text class="cls-20" transform="translate(50.2 26.8)">O</text><path class="cls-10" d="M49.58,14.79A11.24,11.24,0,1,1,60.82,3.55,11.25,11.25,0,0,1,49.58,14.79Zm0-22.15A10.93,10.93,0,0,0,38.67,3.55a10.91,10.91,0,0,0,21.82,0A10.93,10.93,0,0,0,49.58-7.36Z" transform="translate(6.66 18.88)"/><path class="cls-10" d="M49.58-6.95a10.5,10.5,0,1,0,10.5,10.5A10.5,10.5,0,0,0,49.58-6.95Zm0,20.12A9.62,9.62,0,1,1,59.2,3.55,9.62,9.62,0,0,1,49.58,13.17Z" transform="translate(6.66 18.88)"/><text class="cls-20" transform="translate(62.54 55.83)">O</text><path class="cls-10" d="M61.92,43.82A11.25,11.25,0,1,1,73.16,32.57,11.26,11.26,0,0,1,61.92,43.82Zm0-22.15a10.91,10.91,0,1,0,10.9,10.9A10.91,10.91,0,0,0,61.92,21.67Z" transform="translate(6.66 18.88)"/><path class="cls-10" d="M61.92,22.08a10.5,10.5,0,1,0,10.5,10.49A10.5,10.5,0,0,0,61.92,22.08Zm0,20.12a9.63,9.63,0,1,1,9.62-9.63A9.62,9.62,0,0,1,61.92,42.2Z" transform="translate(6.66 18.88)"/><text class="cls-20" transform="translate(36.29 70.57)">O</text><path class="cls-10" d="M35.66,58.56A11.25,11.25,0,1,1,46.9,47.32,11.25,11.25,0,0,1,35.66,58.56Zm0-22.15A10.91,10.91,0,1,0,46.57,47.32,10.91,10.91,0,0,0,35.66,36.41Z" transform="translate(6.66 18.88)"/><path class="cls-10" d="M35.66,36.82a10.5,10.5,0,1,0,10.5,10.5A10.5,10.5,0,0,0,35.66,36.82Zm0,20.12a9.62,9.62,0,1,1,9.62-9.62A9.62,9.62,0,0,1,35.66,56.94Z" transform="translate(6.66 18.88)"/></g><g class="cls-21"><text class="cls-22" transform="translate(18.81 49.08)">L</text><path class="cls-8" d="M16.52,33.85a7.69,7.69,0,1,1,6.62-8.62A7.68,7.68,0,0,1,16.52,33.85Zm5.91-8.53a7,7,0,1,0-6,7.82A7,7,0,0,0,22.43,25.32Z" transform="translate(6.66 18.88)"/><path class="cls-8" d="M15.51,34.63a8.52,8.52,0,1,1,1.11-.08h0A8.41,8.41,0,0,1,15.51,34.63Zm0-16.46a7.41,7.41,0,0,0-1,.07,8.05,8.05,0,0,0-3.86,14.38,8,8,0,0,0,6,1.6h0a8.06,8.06,0,0,0-1-16Z" transform="translate(6.66 18.88)"/><text class="cls-22" transform="translate(26.53 32.44)">L</text><path class="cls-8" d="M24.24,17.21a7.69,7.69,0,1,1,6.62-8.62A7.68,7.68,0,0,1,24.24,17.21Zm5.91-8.53a7,7,0,1,0-6,7.82A7,7,0,0,0,30.15,8.68Z" transform="translate(6.66 18.88)"/><path class="cls-8" d="M23.23,18a8.52,8.52,0,1,1,1.11-.08h0A8.53,8.53,0,0,1,23.23,18Zm0-16.46a7.65,7.65,0,0,0-1.06.07,8.06,8.06,0,0,0,2.1,16h0a8.06,8.06,0,0,0,6.94-9A8.07,8.07,0,0,0,23.25,1.53Z" transform="translate(6.66 18.88)"/><text class="cls-22" transform="translate(5.02 37.94)">L</text><path class="cls-8" d="M2.73,22.71a7.68,7.68,0,1,1,6.62-8.62A7.69,7.69,0,0,1,2.73,22.71Zm5.91-8.52a7,7,0,1,0-6,7.81A7,7,0,0,0,8.64,14.19Z" transform="translate(6.66 18.88)"/><path class="cls-8" d="M1.71,23.49a8.32,8.32,0,0,1-5.09-1.74,8.31,8.31,0,0,1-3.21-5.56A8.41,8.41,0,0,1,.64,6.77,8.41,8.41,0,0,1,10.06,14a8.34,8.34,0,0,1-1.67,6.21,8.33,8.33,0,0,1-5.57,3.21h0A8.27,8.27,0,0,1,1.71,23.49ZM1.74,7A9.59,9.59,0,0,0,.68,7.1a8.07,8.07,0,0,0-6.94,9,8,8,0,0,0,9,6.94h0A8,8,0,0,0,8.12,20a8,8,0,0,0,1.6-5.95A8.07,8.07,0,0,0,1.74,7Z" transform="translate(6.66 18.88)"/><text class="cls-22" transform="translate(36.53 50.41)">L</text><path class="cls-8" d="M34.24,35.18a7.69,7.69,0,1,1,6.62-8.62A7.69,7.69,0,0,1,34.24,35.18Zm5.91-8.53a7,7,0,1,0-6,7.81A7,7,0,0,0,40.15,26.65Z" transform="translate(6.66 18.88)"/><path class="cls-8" d="M33.22,36a8.54,8.54,0,1,1,1.11-.08h0A8.29,8.29,0,0,1,33.22,36Zm0-16.46a7.65,7.65,0,0,0-1.06.07,8.06,8.06,0,0,0,2.1,16h0a8.06,8.06,0,0,0-1-16Z" transform="translate(6.66 18.88)"/><text class="cls-22" transform="translate(15.27 65.72)">L</text><path class="cls-8" d="M13,50.49a7.69,7.69,0,1,1,6.62-8.62A7.69,7.69,0,0,1,13,50.49ZM18.89,42a7,7,0,1,0-6,7.82A7,7,0,0,0,18.89,42Z" transform="translate(6.66 18.88)"/><path class="cls-8" d="M12,51.27a8.4,8.4,0,1,1,8.34-9.49,8.38,8.38,0,0,1-7.23,9.41h0A8.29,8.29,0,0,1,12,51.27Zm0-16.46a7.65,7.65,0,0,0-1.06.07,8.06,8.06,0,0,0,2.1,16h0a8.06,8.06,0,0,0-1-16Z" transform="translate(6.66 18.88)"/></g></g></g></svg>